Coordinates
version=1
nRows=12
nColumns=24
inDegrees=yes

Units are S.I. units (second, meters, Newtons, ...)
Angles are in degrees.

endheader
time	pelvis_tilt	pelvis_list	pelvis_rotation	pelvis_tx	pelvis_ty	pelvis_tz	hip_flexion_r	hip_adduction_r	hip_rotation_r	knee_angle_r	ankle_angle_r	subtalar_angle_r	mtp_angle_r	hip_flexion_l	hip_adduction_l	hip_rotation_l	knee_angle_l	ankle_angle_l	subtalar_angle_l	mtp_angle_l	lumbar_extension	lumbar_bending	lumbar_rotation
      1.10850000	      0.38991043	      5.12639495	     -4.25386166	      0.09796334	      1.06194546	      0.33970588	     21.10041915	     -4.98259537	      0.34963502	    -67.82051214	      2.08622340	    -11.54489561	      7.37706669	      9.88100776	      9.45146106	     -6.00620827	    -10.64356857	      1.92427968	     -2.79375623	      4.73810486	      3.44251180	     -2.97590291	      0.03832935
      1.11266667	      0.39613528	      5.13193870	     -4.24202893	      0.10294078	      1.06256221	      0.33947805	     21.62326536	     -4.88042970	      0.61434320	    -67.45915555	      2.52054827	    -11.94277267	      7.33686466	      9.50956310	      9.51755788	     -5.87412689	    -10.50615365	      2.05287567	     -2.76198377	      4.72140516	      3.41217926	     -2.91620010	     -0.02641970
      1.11683333	      0.38182839	      5.10832326	     -4.20372502	      0.10790964	      1.06316878	      0.33936376	     22.13283526	     -4.73245917	      0.85311692	    -67.01445605	      3.04460571	    -12.43022196	      7.28969245	      9.16772581	      9.53970616	     -5.78477052	    -10.40162926	      2.20958368	     -2.78479449	      4.70035845	      3.38770845	     -2.90230906	     -0.08372543
      1.12100000	      0.36204535	      5.06282521	     -4.13987611	      0.11286226	      1.06376419	      0.33926507	     22.61918495	     -4.56188276	      1.05937852	    -66.48467772	      3.48740497	    -12.93799643	      7.21695602	      8.83753414	      9.53399404	     -5.71072821	    -10.31795992	      2.35719122	     -2.81725552	      4.66539043	      3.34322730	     -2.89703690	     -0.14865675
      1.12516667	      0.35196809	      5.05116032	     -4.13703189	      0.11783838	      1.06432628	      0.33909689	     23.09633955	     -4.42467549	      1.33427761	    -65.90283860	      3.87615008	    -13.34395998	      7.16633860	      8.47567468	      9.57803583	     -5.55714224	    -10.16461809	      2.48087734	     -2.84002966	      4.64156595	      3.34876367	     -2.83254447	     -0.20147053
      1.12933333	      0.34087757	      5.01067231	     -4.09898167	      0.12280724	      1.06490447	      0.33899587	     23.53495845	     -4.25511160	      1.56612039	    -65.23427958	      4.28909253	    -13.81182540	      7.10639599	      8.12337295	      9.58143289	     -5.44584239	    -10.04546986	      2.61775258	     -2.91094556	      4.61222733	      3.32485074	     -2.79845027	     -0.24857482
      1.13350000	      0.32668705	      4.97843961	     -4.08070817	      0.12777403	      1.06544558	      0.33888608	     23.96300506	     -4.08937945	      1.81939440	    -64.50200973	      4.63298487	    -14.24356516	      7.04843154	      7.76800256	      9.59781224	     -5.30361421	     -9.90547940	      2.74002459	     -2.98095119	      4.58381226	      3.30782230	     -2.75033577	     -0.29208957
      1.13766667	      0.30408731	      4.94536018	     -4.05726897	      0.13273856	      1.06594651	      0.33879718	     24.37758327	     -3.92200179	      2.06341058	    -63.70545129	      4.96591811	    -14.72576985	      6.97957769	      7.42220727	      9.60973568	     -5.16958363	     -9.76759840	      2.86710619	     -3.08272559	      4.54928872	      3.29368831	     -2.71367051	     -0.33192109
      1.14183333	      0.29289017	      4.91163536	     -4.03795666	      0.13771591	      1.06644686	      0.33870752	     24.75486385	     -3.75617814	      2.30689343	    -62.83642799	      5.22974842	    -15.16127304	      6.91241093	      7.05963542	      9.62496469	     -5.02152109	     -9.61926236	      2.97917691	     -3.18480666	      4.51537188	      3.27748404	     -2.67565734	     -0.36711583
      1.14600000	      0.26951771	      4.87689224	     -4.01792337	      0.14268617	      1.06690703	      0.33865614	     25.12071662	     -3.58485129	      2.55249808	    -61.90062842	      5.47577796	    -15.65015739	      6.83364355	      6.70930554	      9.63398524	     -4.86682261	     -9.47165561	      3.09500352	     -3.31844973	      4.47501813	      3.26817829	     -2.63117213	     -0.40175756
      1.15016667	      0.20354836	      4.85078989	     -3.99059650	      0.14756236	      1.06723619	      0.33869923	     25.52092770	     -3.40925689	      2.82272646	    -60.91317140	      5.61091974	    -15.84398079	      6.80429906	      6.42259166	      9.63917445	     -4.72896034	     -9.35292050	      3.14915770	     -3.36897619	      4.46062774	      3.18400841	     -2.65572737	     -0.41562144
      1.15433333	      0.21586510	      4.80622509	     -3.94619219	      0.15257591	      1.06772223	      0.33857489	     25.78924516	     -3.25256545	      2.99569319	    -59.84143567	      5.79731296	    -16.75728449	      6.64817480	      6.02266637	      9.65256992	     -4.54794723	     -9.18415871	      3.31027027	     -3.69227299	      4.37826979	      3.14385462	     -2.54855719	     -0.46834473
